<svg width="35" height="35" viewBox="0 0 35 35" fill="none" xmlns="http://www.w3.org/2000/svg">
<path d="M25.3572 12.2354C25.5385 12.4161 25.6823 12.6307 25.7804 12.8671C25.8786 13.1034 25.9291 13.3568 25.9291 13.6127C25.9291 13.8686 25.8786 14.122 25.7804 14.3584C25.6823 14.5947 25.5385 14.8094 25.3572 14.99L16.2831 24.0641C16.1025 24.2454 15.8878 24.3892 15.6515 24.4874C15.4151 24.5855 15.1617 24.636 14.9058 24.636C14.6499 24.636 14.3965 24.5855 14.1601 24.4874C13.9238 24.3892 13.7091 24.2454 13.5285 24.0641L9.63959 20.1752C9.45872 19.9944 9.31524 19.7796 9.21736 19.5433C9.11947 19.307 9.06909 19.0537 9.06909 18.7979C9.06909 18.5421 9.11947 18.2888 9.21736 18.0525C9.31524 17.8162 9.45872 17.6015 9.63959 17.4206C9.82046 17.2397 10.0352 17.0963 10.2715 16.9984C10.5078 16.9005 10.7611 16.8501 11.0169 16.8501C11.2727 16.8501 11.526 16.9005 11.7623 16.9984C11.9986 17.0963 12.2133 17.2397 12.3942 17.4206L14.9074 19.9306L22.6058 12.2306C22.7867 12.0501 23.0014 11.907 23.2376 11.8096C23.4738 11.7122 23.727 11.6623 23.9825 11.6627C24.238 11.6632 24.491 11.714 24.7268 11.8122C24.9627 11.9105 25.1769 12.0543 25.3572 12.2354ZM35 17.5C35 20.9612 33.9736 24.3446 32.0507 27.2225C30.1278 30.1003 27.3947 32.3433 24.197 33.6679C20.9993 34.9924 17.4806 35.339 14.0859 34.6637C10.6913 33.9885 7.57306 32.3218 5.12564 29.8744C2.67822 27.4269 1.01151 24.3087 0.336265 20.9141C-0.338976 17.5194 0.0075825 14.0007 1.33212 10.803C2.65665 7.60533 4.89967 4.87221 7.77753 2.94928C10.6554 1.02636 14.0388 0 17.5 0C22.1397 0.00514666 26.5879 1.85054 29.8687 5.13131C33.1495 8.41209 34.9949 12.8603 35 17.5ZM31.1111 17.5C31.1111 14.808 30.3128 12.1764 28.8172 9.93807C27.3216 7.69973 25.1959 5.95516 22.7087 4.92497C20.2216 3.89478 17.4849 3.62523 14.8446 4.15042C12.2043 4.67561 9.77904 5.97194 7.8755 7.87549C5.97195 9.77904 4.67562 12.2043 4.15043 14.8446C3.62524 17.4849 3.89479 20.2216 4.92498 22.7087C5.95517 25.1958 7.69974 27.3216 9.93808 28.8172C12.1764 30.3128 14.808 31.1111 17.5 31.1111C21.1087 31.1072 24.5685 29.672 27.1202 27.1202C29.672 24.5685 31.1073 21.1087 31.1111 17.5Z" fill="black"/>
</svg>
