<svg width="35" height="35" viewBox="0 0 35 35" fill="none" xmlns="http://www.w3.org/2000/svg">
<path d="M17.5 35C15.2019 35 12.9262 34.5473 10.803 33.6679C8.67984 32.7884 6.75066 31.4994 5.12563 29.8744C1.84374 26.5925 0 22.1413 0 17.5C0 12.8587 1.84374 8.40752 5.12563 5.12563C8.40752 1.84374 12.8587 0 17.5 0C27.125 0 35 7 35 15.75C35 18.5348 33.8938 21.2055 31.9246 23.1746C29.9555 25.1438 27.2848 26.25 24.5 26.25H21.35C20.825 26.25 20.475 26.6 20.475 27.125C20.475 27.3 20.65 27.475 20.65 27.65C21.35 28.525 21.7 29.575 21.7 30.625C21.875 33.075 19.95 35 17.5 35ZM17.5 3.5C13.787 3.5 10.226 4.975 7.6005 7.6005C4.975 10.226 3.5 13.787 3.5 17.5C3.5 21.213 4.975 24.774 7.6005 27.3995C10.226 30.025 13.787 31.5 17.5 31.5C18.025 31.5 18.375 31.15 18.375 30.625C18.375 30.275 18.2 30.1 18.2 29.925C17.5 29.05 17.15 28.175 17.15 27.125C17.15 24.675 19.075 22.75 21.525 22.75H24.5C26.3565 22.75 28.137 22.0125 29.4497 20.6997C30.7625 19.387 31.5 17.6065 31.5 15.75C31.5 8.925 25.2 3.5 17.5 3.5ZM7.875 14C9.275 14 10.5 15.225 10.5 16.625C10.5 18.025 9.275 19.25 7.875 19.25C6.475 19.25 5.25 18.025 5.25 16.625C5.25 15.225 6.475 14 7.875 14ZM13.125 7C14.525 7 15.75 8.225 15.75 9.625C15.75 11.025 14.525 12.25 13.125 12.25C11.725 12.25 10.5 11.025 10.5 9.625C10.5 8.225 11.725 7 13.125 7ZM21.875 7C23.275 7 24.5 8.225 24.5 9.625C24.5 11.025 23.275 12.25 21.875 12.25C20.475 12.25 19.25 11.025 19.25 9.625C19.25 8.225 20.475 7 21.875 7ZM27.125 14C28.525 14 29.75 15.225 29.75 16.625C29.75 18.025 28.525 19.25 27.125 19.25C25.725 19.25 24.5 18.025 24.5 16.625C24.5 15.225 25.725 14 27.125 14Z" fill="black"/>
</svg>
