<svg xmlns="http://www.w3.org/2000/svg" id="Layer_1" data-name="Layer 1" viewBox="0 0 24 24" fill="none">
  <path d="m18.5,5c1.378,0,2.5-1.121,2.5-2.5s-1.122-2.5-2.5-2.5-2.5,1.121-2.5,2.5,1.122,2.5,2.5,2.5Zm0-4c.827,0,1.5.673,1.5,1.5s-.673,1.5-1.5,1.5-1.5-.673-1.5-1.5.673-1.5,1.5-1.5Zm4.874,18.154c-.474.537-1.157.846-1.874.846h-.5v3.5c0,.276-.224.5-.5.5s-.5-.224-.5-.5v-3.5h-2c-.276,0-.5-.224-.5-.5s.224-.5.5-.5h3.5c.43,0,.84-.185,1.125-.508.285-.322.417-.752.364-1.178l-1.653-8.006c-.276-1.338-1.469-2.309-2.835-2.309-.618,0-1.208.192-1.706.556-.224.165-.535.113-.699-.108-.163-.223-.114-.536.109-.698.67-.49,1.464-.749,2.295-.749,1.838,0,3.442,1.307,3.814,3.106l1.66,8.045c.095.75-.125,1.466-.6,2.003Zm-11.374-9.154c1.378,0,2.5-1.121,2.5-2.5s-1.122-2.5-2.5-2.5-2.5,1.121-2.5,2.5,1.122,2.5,2.5,2.5Zm0-4c.827,0,1.5.673,1.5,1.5s-.673,1.5-1.5,1.5-1.5-.673-1.5-1.5.673-1.5,1.5-1.5Zm1,5h-2c-1.654,0-3,1.346-3,3v3c0,1.304.836,2.415,2,2.828v3.672c0,.276.224.5.5.5s.5-.224.5-.5v-3.5h2v3.5c0,.276.224.5.5.5s.5-.224.5-.5v-3.672c1.164-.413,2-1.524,2-2.828v-3c0-1.654-1.346-3-3-3Zm2,6c0,1.103-.897,2-2,2h-2c-1.103,0-2-.897-2-2v-3c0-1.103.897-2,2-2h2c1.103,0,2,.897,2,2v3ZM4.5,5c1.378,0,2.5-1.121,2.5-2.5S5.878,0,4.5,0s-2.5,1.121-2.5,2.5,1.122,2.5,2.5,2.5Zm0-4c.827,0,1.5.673,1.5,1.5s-.673,1.5-1.5,1.5-1.5-.673-1.5-1.5.673-1.5,1.5-1.5Zm2.933,6.151c-.139.238-.445.321-.683.183-.379-.219-.811-.334-1.25-.334h-2c-1.378,0-2.5,1.121-2.5,2.5v4c0,1.379,1.122,2.5,2.5,2.5h2c.276,0,.5.224.5.5s-.224.5-.5.5h-2c-.17,0-.337-.012-.5-.036v6.536c0,.276-.224.5-.5.5s-.5-.224-.5-.5v-6.838c-1.181-.563-2-1.769-2-3.162v-4c0-1.93,1.57-3.5,3.5-3.5h2c.614,0,1.219.162,1.75.469.239.138.321.443.183.683Z" fill="#2F82EA"/>
</svg>