<svg width="35" height="39" viewBox="0 0 35 39" fill="none" xmlns="http://www.w3.org/2000/svg">
<path d="M22.3696 12.0824L29.8261 7.3412L22.5217 0L17.8044 10.5529L15.0652 2.29411L7.76088 7.18822L13.8478 12.0823H0V21.8706H2.43478V39H32.5652V21.8706H35V12.0824H22.3696ZM23.1378 3.21461L26.9598 7.05594L19.1634 12.0249L23.1378 3.21461ZM14.0888 5.15404L16.247 11.6611L10.8516 7.32306L14.0888 5.15404ZM15.0652 36.5529H4.86956V21.1041H15.0652V36.5529ZM15.0652 19.4235H2.43478V14.5294H15.0652V19.4235ZM30.1304 36.5529H19.9347V21.1041H30.1304V36.5529ZM32.5652 19.4235H19.9347V14.5294H32.5652V19.4235Z" fill="black"/>
</svg>
