<svg width="72" height="72" viewBox="0 0 72 72" fill="none" xmlns="http://www.w3.org/2000/svg">
<path d="M71.9989 26.8971C71.95 24.9377 70.3943 23.3794 68.4838 23.1686C67.1094 23.2027 65.7369 23.2919 64.3696 23.436C61.7571 23.7086 59.1137 24.1663 57.3908 24.7603C55.8094 25.3054 52.5823 26.7531 48.4321 28.6869C46.0921 29.7771 43.495 31.0063 40.7745 32.292C38.6917 33.2769 36.5394 34.2951 34.3769 35.3109C29.3961 37.6509 24.3768 39.9677 20.1391 41.7934C15.9478 43.5986 12.3812 44.9846 10.373 45.378C7.89416 45.864 4.10394 46.296 1.21112 46.4271C0.950557 47.1814 0.658276 47.9229 0.334281 48.6514C0.102856 49.1143 0 49.6286 0 50.1943C0.0135215 51.2083 0.425853 52.1762 1.14774 52.8885C1.86962 53.6008 2.84297 54.0001 3.85708 54C11.0904 54 14.3972 52.5189 20.8463 49.626L53.8963 34.74L55.4751 34.0251C60.1011 31.9269 62.4539 30.8571 68.1161 30.8571C70.3018 30.8571 72.0503 29.0829 71.9989 26.8971Z" fill="#2F82EA"/>
<path d="M64.1047 20.88L64.7733 20.8131C60.2039 8.65029 48.4655 0 34.7138 0C17.0997 0 2.57139 14.58 2.57139 32.1429V38.7257C2.5662 40.4386 2.36431 42.1452 1.96968 43.812C4.5565 43.65 7.7296 43.2746 9.87671 42.8554C11.5661 42.5237 14.8703 41.2611 19.1208 39.4329C23.3199 37.6251 28.3058 35.3186 33.2841 32.9837C35.4312 31.9757 37.5808 30.9574 39.6611 29.9751L39.6662 29.9726C42.3945 28.6817 45.007 27.4474 47.347 26.3571C51.4509 24.444 54.8143 22.9294 56.5526 22.3303C58.5582 21.636 61.4331 21.1577 64.1047 20.88ZM43.2919 61.7143L41.7491 56.3143H28.9538L30.8567 61.7143H43.2919Z" fill="#2F82EA"/>
<path d="M40.3322 51.1714H41.8108C44.0787 51.1714 46.1256 52.6937 46.7504 54.8871L48.2907 60.2743C48.517 61.0432 48.5594 61.8545 48.4147 62.6428C48.27 63.4311 47.9422 64.1745 47.4576 64.8129C46.7787 65.7077 45.8222 66.3557 44.7576 66.6591L45.6936 69.9429C46.0022 70.9714 45.2307 72 44.1507 72H34.868C34.4508 72 34.0447 71.8647 33.7109 71.6143C33.3771 71.3639 33.1335 71.012 33.0166 70.6114L31.9469 66.8571H30.8567C29.7992 66.8527 28.7682 66.5256 27.9016 65.9195C27.035 65.3134 26.374 64.4572 26.007 63.4654L25.9967 63.4397L24.0733 57.9857L24.0631 57.9523C23.8053 57.177 23.735 56.3517 23.8579 55.544C23.9808 54.7363 24.2935 53.9692 24.7702 53.3057C25.453 52.3772 26.4227 51.6994 27.5293 51.3771L27.0407 49.6569L38.432 44.5243L40.3322 51.1714ZM43.3973 64.2857C43.7884 64.2753 44.1722 64.1775 44.5205 63.9995C44.8689 63.8215 45.1731 63.5679 45.4107 63.2571C45.6502 62.9378 45.8121 62.567 45.8835 62.1743C45.9549 61.7815 45.9339 61.3775 45.8222 60.9943L44.2793 55.5943C44.1199 55.0623 43.7941 54.5954 43.3498 54.2622C42.9055 53.929 42.3661 53.747 41.8108 53.7429H28.9538C28.5427 53.7468 28.1381 53.8465 27.7721 54.034C27.4061 54.2214 27.0888 54.4915 26.8453 54.8229C26.6065 55.1577 26.4515 55.545 26.3934 55.9522C26.3352 56.3593 26.3755 56.7745 26.511 57.1629L28.4139 62.5629C28.4396 62.6349 28.4696 62.706 28.5038 62.7763C28.9384 63.6866 29.8538 64.2857 30.8567 64.2857H43.3973Z" fill="#2F82EA"/>
</svg>
