<svg width="35" height="35" viewBox="0 0 35 35" fill="none" xmlns="http://www.w3.org/2000/svg">
<path d="M34.6489 17.5H32.199C32.0065 17.5 31.849 17.6575 31.849 17.85V31.85H3.1499V3.15H17.1495C17.342 3.15 17.4995 2.9925 17.4995 2.8V0.35C17.4995 0.1575 17.342 0 17.1495 0H1.39996C0.625605 0 0 0.625625 0 1.4V33.6C0 34.3744 0.625605 35 1.39996 35H33.5989C34.3733 35 34.9989 34.3744 34.9989 33.6V17.85C34.9989 17.6575 34.8414 17.5 34.6489 17.5Z" fill="black"/>
<path d="M10.6703 18.5019L10.5872 23.7037C10.5828 24.0931 10.8978 24.4125 11.2871 24.4125H11.3046L16.467 24.2856C16.5545 24.2812 16.642 24.2463 16.7032 24.185L34.8983 6.02875C35.0339 5.89313 35.0339 5.67 34.8983 5.53437L29.4603 0.100625C29.3903 0.0306251 29.3028 0 29.211 0C29.1191 0 29.0316 0.0350001 28.9616 0.100625L10.7709 18.2569C10.7077 18.323 10.6718 18.4105 10.6703 18.5019ZM13.4483 19.5344L29.211 3.80625L31.1884 5.77938L15.417 21.5162L13.4177 21.5644L13.4483 19.5344Z" fill="black"/>
</svg>
