<svg width="21" height="21" viewBox="0 0 21 21" fill="none" xmlns="http://www.w3.org/2000/svg">
<path d="M11.724 9.71814V5.78354H9.75666V9.71814H5.82206V11.6854H9.75666V15.62H11.724V11.6854H15.6586V9.71814H11.724ZM10.7403 20.5383C8.1315 20.5383 5.62955 19.5019 3.78485 17.6572C1.94015 15.8125 0.903809 13.3106 0.903809 10.7018C0.903809 8.09299 1.94015 5.59104 3.78485 3.74634C5.62955 1.90164 8.1315 0.865295 10.7403 0.865295C13.3491 0.865295 15.8511 1.90164 17.6958 3.74634C19.5405 5.59104 20.5768 8.09299 20.5768 10.7018C20.5768 13.3106 19.5405 15.8125 17.6958 17.6572C15.8511 19.5019 13.3491 20.5383 10.7403 20.5383Z" fill="#292929"/>
</svg>
